<mxfile host="app.diagrams.net" agent="Mozilla/5.0 (Windows NT 10.0; Win64; x64) AppleWebKit/537.36 (KHTML, like Gecko) Chrome/136.0.0.0 Safari/537.36 Edg/136.0.0.0" version="27.0.6">
  <diagram name="Сторінка-1" id="iQWMmBfq2qWsprlatEBk">
    <mxGraphModel dx="5110" dy="2064" grid="1" gridSize="10" guides="1" tooltips="1" connect="1" arrows="1" fold="1" page="1" pageScale="1" pageWidth="827" pageHeight="1169" math="0" shadow="0">
      <root>
        <mxCell id="0" />
        <mxCell id="1" parent="0" />
        <mxCell id="Wj6omOpSQm4kX-WhuVlt-12" value="" style="edgeStyle=orthogonalEdgeStyle;rounded=0;orthogonalLoop=1;jettySize=auto;html=1;" parent="1" source="Wj6omOpSQm4kX-WhuVlt-1" target="Wj6omOpSQm4kX-WhuVlt-11" edge="1">
          <mxGeometry relative="1" as="geometry" />
        </mxCell>
        <object label="Admin" id="Wj6omOpSQm4kX-WhuVlt-1">
          <mxCell style="shape=umlActor;verticalLabelPosition=bottom;verticalAlign=top;html=1;outlineConnect=0;" parent="1" vertex="1">
            <mxGeometry x="-1410" y="30" width="30" height="60" as="geometry" />
          </mxCell>
        </object>
        <mxCell id="Wj6omOpSQm4kX-WhuVlt-80" value="" style="edgeStyle=orthogonalEdgeStyle;rounded=0;orthogonalLoop=1;jettySize=auto;html=1;" parent="1" source="Wj6omOpSQm4kX-WhuVlt-11" target="Wj6omOpSQm4kX-WhuVlt-79" edge="1">
          <mxGeometry relative="1" as="geometry" />
        </mxCell>
        <mxCell id="Wj6omOpSQm4kX-WhuVlt-11" value="Selects a client" style="rounded=1;whiteSpace=wrap;html=1;verticalAlign=top;align=center;" parent="1" vertex="1">
          <mxGeometry x="-1300" y="80" width="120" height="60" as="geometry" />
        </mxCell>
        <mxCell id="Wj6omOpSQm4kX-WhuVlt-13" value="" style="edgeStyle=orthogonalEdgeStyle;rounded=0;orthogonalLoop=1;jettySize=auto;html=1;" parent="1" source="Wj6omOpSQm4kX-WhuVlt-15" target="Wj6omOpSQm4kX-WhuVlt-17" edge="1">
          <mxGeometry relative="1" as="geometry" />
        </mxCell>
        <object label="Customer" id="Wj6omOpSQm4kX-WhuVlt-15">
          <mxCell style="shape=umlActor;verticalLabelPosition=bottom;verticalAlign=top;html=1;outlineConnect=0;" parent="1" vertex="1">
            <mxGeometry x="-900" y="35" width="30" height="60" as="geometry" />
          </mxCell>
        </object>
        <mxCell id="Wj6omOpSQm4kX-WhuVlt-84" value="" style="edgeStyle=orthogonalEdgeStyle;rounded=0;orthogonalLoop=1;jettySize=auto;html=1;" parent="1" source="Wj6omOpSQm4kX-WhuVlt-17" target="Wj6omOpSQm4kX-WhuVlt-83" edge="1">
          <mxGeometry relative="1" as="geometry" />
        </mxCell>
        <mxCell id="Wj6omOpSQm4kX-WhuVlt-17" value="Choose animal type&lt;div&gt;Choose date&lt;/div&gt;&lt;div&gt;&lt;div&gt;&lt;br&gt;&lt;/div&gt;&lt;/div&gt;" style="rounded=1;whiteSpace=wrap;html=1;verticalAlign=top;" parent="1" vertex="1">
          <mxGeometry x="-1050" y="125" width="120" height="65" as="geometry" />
        </mxCell>
        <mxCell id="Wj6omOpSQm4kX-WhuVlt-29" value="" style="edgeStyle=orthogonalEdgeStyle;rounded=0;orthogonalLoop=1;jettySize=auto;html=1;" parent="1" source="Wj6omOpSQm4kX-WhuVlt-25" target="Wj6omOpSQm4kX-WhuVlt-28" edge="1">
          <mxGeometry relative="1" as="geometry" />
        </mxCell>
        <object label="Veterinarian&lt;div&gt;&lt;br&gt;&lt;/div&gt;" id="Wj6omOpSQm4kX-WhuVlt-25">
          <mxCell style="shape=umlActor;verticalLabelPosition=bottom;verticalAlign=top;html=1;outlineConnect=0;" parent="1" vertex="1">
            <mxGeometry x="-600" y="50" width="30" height="60" as="geometry" />
          </mxCell>
        </object>
        <mxCell id="Wj6omOpSQm4kX-WhuVlt-28" value="Sends response to request&lt;div&gt;&lt;br&gt;&lt;/div&gt;" style="rounded=1;whiteSpace=wrap;html=1;verticalAlign=top;" parent="1" vertex="1">
          <mxGeometry x="-645" y="180" width="120" height="60" as="geometry" />
        </mxCell>
        <mxCell id="Wj6omOpSQm4kX-WhuVlt-32" value="" style="edgeStyle=orthogonalEdgeStyle;rounded=0;orthogonalLoop=1;jettySize=auto;html=1;" parent="1" source="Wj6omOpSQm4kX-WhuVlt-30" target="Wj6omOpSQm4kX-WhuVlt-31" edge="1">
          <mxGeometry relative="1" as="geometry" />
        </mxCell>
        <mxCell id="Wj6omOpSQm4kX-WhuVlt-30" value="Veterinariam&lt;div&gt;&lt;br&gt;&lt;/div&gt;" style="shape=umlActor;verticalLabelPosition=bottom;verticalAlign=top;html=1;outlineConnect=0;" parent="1" vertex="1">
          <mxGeometry x="-1430" y="390" width="30" height="60" as="geometry" />
        </mxCell>
        <mxCell id="Wj6omOpSQm4kX-WhuVlt-40" value="" style="edgeStyle=orthogonalEdgeStyle;rounded=0;orthogonalLoop=1;jettySize=auto;html=1;" parent="1" source="Wj6omOpSQm4kX-WhuVlt-31" target="Wj6omOpSQm4kX-WhuVlt-39" edge="1">
          <mxGeometry relative="1" as="geometry" />
        </mxCell>
        <mxCell id="Wj6omOpSQm4kX-WhuVlt-31" value="Selects customer and customer&#39;s pet" style="rounded=1;whiteSpace=wrap;html=1;verticalAlign=top;" parent="1" vertex="1">
          <mxGeometry x="-1620" y="460" width="120" height="60" as="geometry" />
        </mxCell>
        <mxCell id="Wj6omOpSQm4kX-WhuVlt-39" value="Insert a new vaccination to medical records" style="rounded=1;whiteSpace=wrap;html=1;verticalAlign=top;" parent="1" vertex="1">
          <mxGeometry x="-1420" y="500" width="120" height="60" as="geometry" />
        </mxCell>
        <mxCell id="Wj6omOpSQm4kX-WhuVlt-41" value="Admin&lt;div&gt;&lt;br&gt;&lt;/div&gt;" style="shape=umlActor;verticalLabelPosition=bottom;verticalAlign=top;html=1;outlineConnect=0;" parent="1" vertex="1">
          <mxGeometry x="-1430" y="800" width="30" height="60" as="geometry" />
        </mxCell>
        <mxCell id="Wj6omOpSQm4kX-WhuVlt-43" value="" style="endArrow=none;dashed=1;html=1;rounded=0;" parent="1" edge="1">
          <mxGeometry width="50" height="50" relative="1" as="geometry">
            <mxPoint x="-1410" y="1560" as="sourcePoint" />
            <mxPoint x="-1410" y="870" as="targetPoint" />
          </mxGeometry>
        </mxCell>
        <mxCell id="Wj6omOpSQm4kX-WhuVlt-44" value="" style="endArrow=none;dashed=1;html=1;rounded=0;" parent="1" edge="1">
          <mxGeometry width="50" height="50" relative="1" as="geometry">
            <mxPoint x="-1200" y="1560" as="sourcePoint" />
            <mxPoint x="-1200" y="870" as="targetPoint" />
          </mxGeometry>
        </mxCell>
        <mxCell id="Wj6omOpSQm4kX-WhuVlt-45" value="" style="endArrow=none;dashed=1;html=1;rounded=0;" parent="1" target="Wj6omOpSQm4kX-WhuVlt-48" edge="1">
          <mxGeometry width="50" height="50" relative="1" as="geometry">
            <mxPoint x="-1000" y="1550" as="sourcePoint" />
            <mxPoint x="-1000" y="870" as="targetPoint" />
          </mxGeometry>
        </mxCell>
        <mxCell id="Wj6omOpSQm4kX-WhuVlt-46" value="" style="endArrow=none;dashed=1;html=1;rounded=0;" parent="1" target="Wj6omOpSQm4kX-WhuVlt-49" edge="1">
          <mxGeometry width="50" height="50" relative="1" as="geometry">
            <mxPoint x="-800" y="1550" as="sourcePoint" />
            <mxPoint x="-800" y="870" as="targetPoint" />
          </mxGeometry>
        </mxCell>
        <mxCell id="Wj6omOpSQm4kX-WhuVlt-47" value="Interface" style="whiteSpace=wrap;html=1;" parent="1" vertex="1">
          <mxGeometry x="-1260" y="810" width="120" height="60" as="geometry" />
        </mxCell>
        <mxCell id="Wj6omOpSQm4kX-WhuVlt-48" value="Server-side" style="rounded=0;whiteSpace=wrap;html=1;" parent="1" vertex="1">
          <mxGeometry x="-1060" y="810" width="120" height="60" as="geometry" />
        </mxCell>
        <mxCell id="Wj6omOpSQm4kX-WhuVlt-49" value="Database" style="rounded=0;whiteSpace=wrap;html=1;" parent="1" vertex="1">
          <mxGeometry x="-860" y="810" width="120" height="60" as="geometry" />
        </mxCell>
        <mxCell id="Wj6omOpSQm4kX-WhuVlt-60" value="" style="endArrow=none;dashed=1;html=1;rounded=0;" parent="1" target="Wj6omOpSQm4kX-WhuVlt-25" edge="1">
          <mxGeometry width="50" height="50" relative="1" as="geometry">
            <mxPoint x="-870" y="80" as="sourcePoint" />
            <mxPoint x="-820" y="30" as="targetPoint" />
          </mxGeometry>
        </mxCell>
        <mxCell id="Wj6omOpSQm4kX-WhuVlt-61" value="" style="endArrow=classic;html=1;rounded=0;" parent="1" edge="1">
          <mxGeometry width="50" height="50" relative="1" as="geometry">
            <mxPoint x="-1200" y="1060" as="sourcePoint" />
            <mxPoint x="-1000" y="1060" as="targetPoint" />
          </mxGeometry>
        </mxCell>
        <mxCell id="Wj6omOpSQm4kX-WhuVlt-62" value="Makes a form" style="text;html=1;align=center;verticalAlign=middle;whiteSpace=wrap;rounded=0;" parent="1" vertex="1">
          <mxGeometry x="-1200" y="1030" width="200" height="30" as="geometry" />
        </mxCell>
        <mxCell id="Wj6omOpSQm4kX-WhuVlt-63" value="" style="rounded=0;whiteSpace=wrap;html=1;" parent="1" vertex="1">
          <mxGeometry x="-1200" y="1040" width="10" height="160" as="geometry" />
        </mxCell>
        <mxCell id="Wj6omOpSQm4kX-WhuVlt-64" value="makes request to db" style="text;html=1;align=center;verticalAlign=middle;whiteSpace=wrap;rounded=0;" parent="1" vertex="1">
          <mxGeometry x="-1000" y="1050" width="200" height="30" as="geometry" />
        </mxCell>
        <mxCell id="Wj6omOpSQm4kX-WhuVlt-66" value="" style="endArrow=classic;html=1;rounded=0;" parent="1" edge="1">
          <mxGeometry width="50" height="50" relative="1" as="geometry">
            <mxPoint x="-1000" y="1080" as="sourcePoint" />
            <mxPoint x="-800" y="1080" as="targetPoint" />
          </mxGeometry>
        </mxCell>
        <mxCell id="Wj6omOpSQm4kX-WhuVlt-68" value="" style="endArrow=classic;html=1;rounded=0;" parent="1" edge="1">
          <mxGeometry width="50" height="50" relative="1" as="geometry">
            <mxPoint x="-800" y="1129.5" as="sourcePoint" />
            <mxPoint x="-1000" y="1129.5" as="targetPoint" />
          </mxGeometry>
        </mxCell>
        <mxCell id="Wj6omOpSQm4kX-WhuVlt-69" value="query result" style="text;html=1;align=center;verticalAlign=middle;whiteSpace=wrap;rounded=0;" parent="1" vertex="1">
          <mxGeometry x="-1000" y="1100" width="200" height="30" as="geometry" />
        </mxCell>
        <mxCell id="Wj6omOpSQm4kX-WhuVlt-70" value="" style="endArrow=classic;html=1;rounded=0;" parent="1" edge="1">
          <mxGeometry width="50" height="50" relative="1" as="geometry">
            <mxPoint x="-1000" y="1160" as="sourcePoint" />
            <mxPoint x="-1200" y="1160" as="targetPoint" />
          </mxGeometry>
        </mxCell>
        <mxCell id="Wj6omOpSQm4kX-WhuVlt-74" value="processes result" style="text;html=1;align=center;verticalAlign=middle;whiteSpace=wrap;rounded=0;" parent="1" vertex="1">
          <mxGeometry x="-1200" y="1130" width="200" height="30" as="geometry" />
        </mxCell>
        <mxCell id="Wj6omOpSQm4kX-WhuVlt-82" value="" style="edgeStyle=orthogonalEdgeStyle;rounded=0;orthogonalLoop=1;jettySize=auto;html=1;" parent="1" source="Wj6omOpSQm4kX-WhuVlt-79" target="Wj6omOpSQm4kX-WhuVlt-81" edge="1">
          <mxGeometry relative="1" as="geometry" />
        </mxCell>
        <mxCell id="Wj6omOpSQm4kX-WhuVlt-79" value="Selects a date&lt;div&gt;&lt;br&gt;&lt;/div&gt;" style="whiteSpace=wrap;html=1;verticalAlign=top;rounded=1;" parent="1" vertex="1">
          <mxGeometry x="-1300" y="220" width="120" height="60" as="geometry" />
        </mxCell>
        <mxCell id="Wj6omOpSQm4kX-WhuVlt-81" value="Selects a vet for the job" style="whiteSpace=wrap;html=1;verticalAlign=top;rounded=1;" parent="1" vertex="1">
          <mxGeometry x="-1520" y="220" width="120" height="60" as="geometry" />
        </mxCell>
        <mxCell id="Wj6omOpSQm4kX-WhuVlt-83" value="Choose among free vet&lt;br&gt;&lt;div&gt;&lt;br&gt;&lt;/div&gt;" style="whiteSpace=wrap;html=1;verticalAlign=top;rounded=1;" parent="1" vertex="1">
          <mxGeometry x="-860" y="160" width="120" height="60" as="geometry" />
        </mxCell>
        <mxCell id="mU4AiHzhBXtKPvCtPfM_-6" value="" style="endArrow=classic;html=1;rounded=0;" parent="1" edge="1">
          <mxGeometry width="50" height="50" relative="1" as="geometry">
            <mxPoint x="-1410" y="930" as="sourcePoint" />
            <mxPoint x="-1200" y="930" as="targetPoint" />
          </mxGeometry>
        </mxCell>
        <mxCell id="Wj6omOpSQm4kX-WhuVlt-55" value="Selects client among Clients" style="text;html=1;align=center;verticalAlign=middle;whiteSpace=wrap;rounded=0;" parent="1" vertex="1">
          <mxGeometry x="-1410" y="900" width="210" height="30" as="geometry" />
        </mxCell>
        <mxCell id="mU4AiHzhBXtKPvCtPfM_-53" value="" style="endArrow=classic;html=1;rounded=0;" parent="1" edge="1">
          <mxGeometry width="50" height="50" relative="1" as="geometry">
            <mxPoint x="-1410" y="970" as="sourcePoint" />
            <mxPoint x="-1200" y="970" as="targetPoint" />
          </mxGeometry>
        </mxCell>
        <mxCell id="mU4AiHzhBXtKPvCtPfM_-54" value="" style="endArrow=classic;html=1;rounded=0;entryX=0;entryY=0.5;entryDx=0;entryDy=0;" parent="1" target="Wj6omOpSQm4kX-WhuVlt-62" edge="1">
          <mxGeometry width="50" height="50" relative="1" as="geometry">
            <mxPoint x="-1410" y="1045" as="sourcePoint" />
            <mxPoint x="-1200" y="1025" as="targetPoint" />
          </mxGeometry>
        </mxCell>
        <mxCell id="mU4AiHzhBXtKPvCtPfM_-58" value="Selects a date" style="text;html=1;align=center;verticalAlign=middle;whiteSpace=wrap;rounded=0;" parent="1" vertex="1">
          <mxGeometry x="-1410" y="940" width="210" height="30" as="geometry" />
        </mxCell>
        <mxCell id="mU4AiHzhBXtKPvCtPfM_-59" value="Selets a veterinarian" style="text;html=1;align=center;verticalAlign=middle;whiteSpace=wrap;rounded=0;" parent="1" vertex="1">
          <mxGeometry x="-1410" y="1010" width="210" height="30" as="geometry" />
        </mxCell>
        <mxCell id="mU4AiHzhBXtKPvCtPfM_-60" value="display result" style="text;html=1;align=center;verticalAlign=middle;whiteSpace=wrap;rounded=0;" parent="1" vertex="1">
          <mxGeometry x="-1410" y="1169" width="210" height="30" as="geometry" />
        </mxCell>
        <mxCell id="mU4AiHzhBXtKPvCtPfM_-61" value="" style="endArrow=classic;html=1;rounded=0;" parent="1" edge="1">
          <mxGeometry width="50" height="50" relative="1" as="geometry">
            <mxPoint x="-1200" y="1198" as="sourcePoint" />
            <mxPoint x="-1410" y="1198" as="targetPoint" />
          </mxGeometry>
        </mxCell>
        <mxCell id="mU4AiHzhBXtKPvCtPfM_-62" value="" style="endArrow=classic;html=1;rounded=0;" parent="1" edge="1">
          <mxGeometry width="50" height="50" relative="1" as="geometry">
            <mxPoint x="-1410" y="1270" as="sourcePoint" />
            <mxPoint x="-1200" y="1270" as="targetPoint" />
          </mxGeometry>
        </mxCell>
        <mxCell id="mU4AiHzhBXtKPvCtPfM_-63" value="writes appointment in veterinarian&#39;s schedule" style="text;html=1;align=center;verticalAlign=middle;whiteSpace=wrap;rounded=0;" parent="1" vertex="1">
          <mxGeometry x="-1410" y="1240" width="210" height="30" as="geometry" />
        </mxCell>
        <mxCell id="mU4AiHzhBXtKPvCtPfM_-64" value="" style="endArrow=classic;html=1;rounded=0;" parent="1" edge="1">
          <mxGeometry width="50" height="50" relative="1" as="geometry">
            <mxPoint x="-1200" y="1310" as="sourcePoint" />
            <mxPoint x="-1000" y="1310" as="targetPoint" />
          </mxGeometry>
        </mxCell>
        <mxCell id="mU4AiHzhBXtKPvCtPfM_-65" value="" style="endArrow=classic;html=1;rounded=0;" parent="1" edge="1">
          <mxGeometry width="50" height="50" relative="1" as="geometry">
            <mxPoint x="-1000" y="1350" as="sourcePoint" />
            <mxPoint x="-800" y="1350" as="targetPoint" />
          </mxGeometry>
        </mxCell>
        <mxCell id="mU4AiHzhBXtKPvCtPfM_-66" value="makes request to db" style="text;html=1;align=center;verticalAlign=middle;whiteSpace=wrap;rounded=0;" parent="1" vertex="1">
          <mxGeometry x="-1000" y="1320" width="200" height="30" as="geometry" />
        </mxCell>
        <mxCell id="mU4AiHzhBXtKPvCtPfM_-67" value="Makes a form" style="text;html=1;align=center;verticalAlign=middle;whiteSpace=wrap;rounded=0;" parent="1" vertex="1">
          <mxGeometry x="-1200" y="1280" width="200" height="30" as="geometry" />
        </mxCell>
        <mxCell id="mU4AiHzhBXtKPvCtPfM_-68" value="" style="endArrow=classic;html=1;rounded=0;" parent="1" edge="1">
          <mxGeometry width="50" height="50" relative="1" as="geometry">
            <mxPoint x="-800" y="1390" as="sourcePoint" />
            <mxPoint x="-1000" y="1390" as="targetPoint" />
          </mxGeometry>
        </mxCell>
        <mxCell id="mU4AiHzhBXtKPvCtPfM_-69" value="" style="endArrow=classic;html=1;rounded=0;" parent="1" edge="1">
          <mxGeometry width="50" height="50" relative="1" as="geometry">
            <mxPoint x="-1000" y="1430" as="sourcePoint" />
            <mxPoint x="-1200" y="1430" as="targetPoint" />
          </mxGeometry>
        </mxCell>
        <mxCell id="mU4AiHzhBXtKPvCtPfM_-70" value="" style="endArrow=classic;html=1;rounded=0;" parent="1" edge="1">
          <mxGeometry width="50" height="50" relative="1" as="geometry">
            <mxPoint x="-1200" y="1470" as="sourcePoint" />
            <mxPoint x="-1410" y="1470" as="targetPoint" />
          </mxGeometry>
        </mxCell>
        <mxCell id="mU4AiHzhBXtKPvCtPfM_-71" value="processes result" style="text;html=1;align=center;verticalAlign=middle;whiteSpace=wrap;rounded=0;" parent="1" vertex="1">
          <mxGeometry x="-1200" y="1400" width="200" height="30" as="geometry" />
        </mxCell>
        <mxCell id="mU4AiHzhBXtKPvCtPfM_-72" value="query result" style="text;html=1;align=center;verticalAlign=middle;whiteSpace=wrap;rounded=0;" parent="1" vertex="1">
          <mxGeometry x="-1000" y="1360" width="200" height="30" as="geometry" />
        </mxCell>
        <mxCell id="mU4AiHzhBXtKPvCtPfM_-73" value="display result" style="text;html=1;align=center;verticalAlign=middle;whiteSpace=wrap;rounded=0;" parent="1" vertex="1">
          <mxGeometry x="-1410" y="1440" width="210" height="30" as="geometry" />
        </mxCell>
        <mxCell id="mU4AiHzhBXtKPvCtPfM_-74" value="" style="rounded=0;whiteSpace=wrap;html=1;" parent="1" vertex="1">
          <mxGeometry x="-1200" y="1270" width="10" height="200" as="geometry" />
        </mxCell>
        <mxCell id="mU4AiHzhBXtKPvCtPfM_-76" value="" style="rounded=0;whiteSpace=wrap;html=1;" parent="1" vertex="1">
          <mxGeometry x="-800" y="1080" width="10" height="50" as="geometry" />
        </mxCell>
        <mxCell id="mU4AiHzhBXtKPvCtPfM_-77" value="" style="rounded=0;whiteSpace=wrap;html=1;" parent="1" vertex="1">
          <mxGeometry x="-800" y="1345" width="10" height="50" as="geometry" />
        </mxCell>
        <mxCell id="mU4AiHzhBXtKPvCtPfM_-78" value="" style="rounded=0;whiteSpace=wrap;html=1;" parent="1" vertex="1">
          <mxGeometry x="-1000" y="1060" width="10" height="100" as="geometry" />
        </mxCell>
        <mxCell id="mU4AiHzhBXtKPvCtPfM_-79" value="" style="rounded=0;whiteSpace=wrap;html=1;" parent="1" vertex="1">
          <mxGeometry x="-1000" y="1310" width="10" height="120" as="geometry" />
        </mxCell>
        <mxCell id="JjNENzVG-CVF1-0G1tMt-1" value="Client" style="shape=umlActor;verticalLabelPosition=bottom;verticalAlign=top;html=1;outlineConnect=0;" vertex="1" parent="1">
          <mxGeometry x="-370" y="800" width="30" height="60" as="geometry" />
        </mxCell>
        <mxCell id="JjNENzVG-CVF1-0G1tMt-2" value="" style="endArrow=none;dashed=1;html=1;rounded=0;" edge="1" parent="1">
          <mxGeometry width="50" height="50" relative="1" as="geometry">
            <mxPoint x="-350" y="1560" as="sourcePoint" />
            <mxPoint x="-350" y="870" as="targetPoint" />
          </mxGeometry>
        </mxCell>
        <mxCell id="JjNENzVG-CVF1-0G1tMt-3" value="" style="endArrow=none;dashed=1;html=1;rounded=0;" edge="1" parent="1">
          <mxGeometry width="50" height="50" relative="1" as="geometry">
            <mxPoint x="-140" y="1560" as="sourcePoint" />
            <mxPoint x="-140" y="870" as="targetPoint" />
          </mxGeometry>
        </mxCell>
        <mxCell id="JjNENzVG-CVF1-0G1tMt-4" value="" style="endArrow=none;dashed=1;html=1;rounded=0;" edge="1" parent="1" target="JjNENzVG-CVF1-0G1tMt-7">
          <mxGeometry width="50" height="50" relative="1" as="geometry">
            <mxPoint x="60" y="1550" as="sourcePoint" />
            <mxPoint x="60" y="870" as="targetPoint" />
          </mxGeometry>
        </mxCell>
        <mxCell id="JjNENzVG-CVF1-0G1tMt-5" value="" style="endArrow=none;dashed=1;html=1;rounded=0;" edge="1" parent="1" target="JjNENzVG-CVF1-0G1tMt-8">
          <mxGeometry width="50" height="50" relative="1" as="geometry">
            <mxPoint x="260" y="1550" as="sourcePoint" />
            <mxPoint x="260" y="870" as="targetPoint" />
          </mxGeometry>
        </mxCell>
        <mxCell id="JjNENzVG-CVF1-0G1tMt-6" value="Interface" style="whiteSpace=wrap;html=1;" vertex="1" parent="1">
          <mxGeometry x="-200" y="810" width="120" height="60" as="geometry" />
        </mxCell>
        <mxCell id="JjNENzVG-CVF1-0G1tMt-7" value="Server-side" style="rounded=0;whiteSpace=wrap;html=1;" vertex="1" parent="1">
          <mxGeometry y="810" width="120" height="60" as="geometry" />
        </mxCell>
        <mxCell id="JjNENzVG-CVF1-0G1tMt-8" value="Database" style="rounded=0;whiteSpace=wrap;html=1;" vertex="1" parent="1">
          <mxGeometry x="200" y="810" width="120" height="60" as="geometry" />
        </mxCell>
        <mxCell id="JjNENzVG-CVF1-0G1tMt-9" value="" style="endArrow=classic;html=1;rounded=0;" edge="1" parent="1">
          <mxGeometry width="50" height="50" relative="1" as="geometry">
            <mxPoint x="-350" y="930" as="sourcePoint" />
            <mxPoint x="-140" y="930" as="targetPoint" />
          </mxGeometry>
        </mxCell>
        <mxCell id="JjNENzVG-CVF1-0G1tMt-10" value="Selects animal type" style="text;html=1;align=center;verticalAlign=middle;whiteSpace=wrap;rounded=0;" vertex="1" parent="1">
          <mxGeometry x="-350" y="900" width="210" height="30" as="geometry" />
        </mxCell>
        <mxCell id="JjNENzVG-CVF1-0G1tMt-11" value="" style="endArrow=classic;html=1;rounded=0;" edge="1" parent="1">
          <mxGeometry width="50" height="50" relative="1" as="geometry">
            <mxPoint x="-350" y="970" as="sourcePoint" />
            <mxPoint x="-140" y="970" as="targetPoint" />
          </mxGeometry>
        </mxCell>
        <mxCell id="JjNENzVG-CVF1-0G1tMt-12" value="Describes problem" style="text;html=1;align=center;verticalAlign=middle;whiteSpace=wrap;rounded=0;" vertex="1" parent="1">
          <mxGeometry x="-350" y="940" width="210" height="30" as="geometry" />
        </mxCell>
        <mxCell id="JjNENzVG-CVF1-0G1tMt-13" value="&lt;div&gt;Veterinarian&lt;/div&gt;" style="shape=umlActor;verticalLabelPosition=bottom;verticalAlign=top;html=1;outlineConnect=0;" vertex="1" parent="1">
          <mxGeometry x="770" y="800" width="30" height="60" as="geometry" />
        </mxCell>
        <mxCell id="JjNENzVG-CVF1-0G1tMt-14" value="" style="endArrow=none;dashed=1;html=1;rounded=0;" edge="1" parent="1">
          <mxGeometry width="50" height="50" relative="1" as="geometry">
            <mxPoint x="790" y="1560" as="sourcePoint" />
            <mxPoint x="790" y="870" as="targetPoint" />
          </mxGeometry>
        </mxCell>
        <mxCell id="JjNENzVG-CVF1-0G1tMt-15" value="" style="endArrow=none;dashed=1;html=1;rounded=0;" edge="1" parent="1">
          <mxGeometry width="50" height="50" relative="1" as="geometry">
            <mxPoint x="1000" y="1560" as="sourcePoint" />
            <mxPoint x="1000" y="870" as="targetPoint" />
          </mxGeometry>
        </mxCell>
        <mxCell id="JjNENzVG-CVF1-0G1tMt-16" value="" style="endArrow=none;dashed=1;html=1;rounded=0;" edge="1" parent="1" target="JjNENzVG-CVF1-0G1tMt-19">
          <mxGeometry width="50" height="50" relative="1" as="geometry">
            <mxPoint x="1200" y="1550" as="sourcePoint" />
            <mxPoint x="1200" y="870" as="targetPoint" />
          </mxGeometry>
        </mxCell>
        <mxCell id="JjNENzVG-CVF1-0G1tMt-17" value="" style="endArrow=none;dashed=1;html=1;rounded=0;" edge="1" parent="1" target="JjNENzVG-CVF1-0G1tMt-20">
          <mxGeometry width="50" height="50" relative="1" as="geometry">
            <mxPoint x="1400" y="1550" as="sourcePoint" />
            <mxPoint x="1400" y="870" as="targetPoint" />
          </mxGeometry>
        </mxCell>
        <mxCell id="JjNENzVG-CVF1-0G1tMt-18" value="Interface" style="whiteSpace=wrap;html=1;" vertex="1" parent="1">
          <mxGeometry x="940" y="810" width="120" height="60" as="geometry" />
        </mxCell>
        <mxCell id="JjNENzVG-CVF1-0G1tMt-19" value="Server-side" style="rounded=0;whiteSpace=wrap;html=1;" vertex="1" parent="1">
          <mxGeometry x="1140" y="810" width="120" height="60" as="geometry" />
        </mxCell>
        <mxCell id="JjNENzVG-CVF1-0G1tMt-20" value="Database" style="rounded=0;whiteSpace=wrap;html=1;" vertex="1" parent="1">
          <mxGeometry x="1340" y="810" width="120" height="60" as="geometry" />
        </mxCell>
        <mxCell id="JjNENzVG-CVF1-0G1tMt-23" value="" style="endArrow=classic;html=1;rounded=0;" edge="1" parent="1">
          <mxGeometry width="50" height="50" relative="1" as="geometry">
            <mxPoint x="790" y="931" as="sourcePoint" />
            <mxPoint x="1000" y="931" as="targetPoint" />
          </mxGeometry>
        </mxCell>
        <mxCell id="JjNENzVG-CVF1-0G1tMt-24" value="Selects Customer" style="text;html=1;align=center;verticalAlign=middle;whiteSpace=wrap;rounded=0;" vertex="1" parent="1">
          <mxGeometry x="790" y="901" width="210" height="30" as="geometry" />
        </mxCell>
        <mxCell id="JjNENzVG-CVF1-0G1tMt-26" value="" style="endArrow=classic;html=1;rounded=0;" edge="1" parent="1">
          <mxGeometry width="50" height="50" relative="1" as="geometry">
            <mxPoint x="-140" y="1040" as="sourcePoint" />
            <mxPoint x="60" y="1040" as="targetPoint" />
          </mxGeometry>
        </mxCell>
        <mxCell id="JjNENzVG-CVF1-0G1tMt-27" value="Makes a form" style="text;html=1;align=center;verticalAlign=middle;whiteSpace=wrap;rounded=0;" vertex="1" parent="1">
          <mxGeometry x="-140" y="1010" width="200" height="30" as="geometry" />
        </mxCell>
        <mxCell id="JjNENzVG-CVF1-0G1tMt-28" value="" style="rounded=0;whiteSpace=wrap;html=1;" vertex="1" parent="1">
          <mxGeometry x="-140" y="1020" width="10" height="160" as="geometry" />
        </mxCell>
        <mxCell id="JjNENzVG-CVF1-0G1tMt-29" value="makes request to db" style="text;html=1;align=center;verticalAlign=middle;whiteSpace=wrap;rounded=0;" vertex="1" parent="1">
          <mxGeometry x="60" y="1030" width="200" height="30" as="geometry" />
        </mxCell>
        <mxCell id="JjNENzVG-CVF1-0G1tMt-30" value="" style="endArrow=classic;html=1;rounded=0;" edge="1" parent="1">
          <mxGeometry width="50" height="50" relative="1" as="geometry">
            <mxPoint x="60" y="1060" as="sourcePoint" />
            <mxPoint x="260" y="1060" as="targetPoint" />
          </mxGeometry>
        </mxCell>
        <mxCell id="JjNENzVG-CVF1-0G1tMt-31" value="" style="endArrow=classic;html=1;rounded=0;" edge="1" parent="1">
          <mxGeometry width="50" height="50" relative="1" as="geometry">
            <mxPoint x="260" y="1109.5" as="sourcePoint" />
            <mxPoint x="60" y="1109.5" as="targetPoint" />
          </mxGeometry>
        </mxCell>
        <mxCell id="JjNENzVG-CVF1-0G1tMt-32" value="query result" style="text;html=1;align=center;verticalAlign=middle;whiteSpace=wrap;rounded=0;" vertex="1" parent="1">
          <mxGeometry x="60" y="1080" width="200" height="30" as="geometry" />
        </mxCell>
        <mxCell id="JjNENzVG-CVF1-0G1tMt-33" value="" style="endArrow=classic;html=1;rounded=0;" edge="1" parent="1">
          <mxGeometry width="50" height="50" relative="1" as="geometry">
            <mxPoint x="60" y="1140" as="sourcePoint" />
            <mxPoint x="-140" y="1140" as="targetPoint" />
          </mxGeometry>
        </mxCell>
        <mxCell id="JjNENzVG-CVF1-0G1tMt-34" value="processes result" style="text;html=1;align=center;verticalAlign=middle;whiteSpace=wrap;rounded=0;" vertex="1" parent="1">
          <mxGeometry x="-140" y="1110" width="200" height="30" as="geometry" />
        </mxCell>
        <mxCell id="JjNENzVG-CVF1-0G1tMt-35" value="" style="endArrow=classic;html=1;rounded=0;entryX=0;entryY=0.5;entryDx=0;entryDy=0;" edge="1" parent="1" target="JjNENzVG-CVF1-0G1tMt-27">
          <mxGeometry width="50" height="50" relative="1" as="geometry">
            <mxPoint x="-350" y="1025" as="sourcePoint" />
            <mxPoint x="-140" y="1005" as="targetPoint" />
          </mxGeometry>
        </mxCell>
        <mxCell id="JjNENzVG-CVF1-0G1tMt-36" value="Selets a veterinarian" style="text;html=1;align=center;verticalAlign=middle;whiteSpace=wrap;rounded=0;" vertex="1" parent="1">
          <mxGeometry x="-350" y="990" width="210" height="30" as="geometry" />
        </mxCell>
        <mxCell id="JjNENzVG-CVF1-0G1tMt-37" value="display result" style="text;html=1;align=center;verticalAlign=middle;whiteSpace=wrap;rounded=0;" vertex="1" parent="1">
          <mxGeometry x="-350" y="1168.82" width="210" height="30" as="geometry" />
        </mxCell>
        <mxCell id="JjNENzVG-CVF1-0G1tMt-38" value="" style="endArrow=classic;html=1;rounded=0;" edge="1" parent="1">
          <mxGeometry width="50" height="50" relative="1" as="geometry">
            <mxPoint x="-140" y="1197.82" as="sourcePoint" />
            <mxPoint x="-350" y="1197.82" as="targetPoint" />
          </mxGeometry>
        </mxCell>
        <mxCell id="JjNENzVG-CVF1-0G1tMt-39" value="" style="rounded=0;whiteSpace=wrap;html=1;" vertex="1" parent="1">
          <mxGeometry x="260" y="1060" width="10" height="50" as="geometry" />
        </mxCell>
        <mxCell id="JjNENzVG-CVF1-0G1tMt-40" value="" style="rounded=0;whiteSpace=wrap;html=1;" vertex="1" parent="1">
          <mxGeometry x="60" y="1040" width="10" height="140" as="geometry" />
        </mxCell>
        <mxCell id="JjNENzVG-CVF1-0G1tMt-43" value="" style="endArrow=classic;html=1;rounded=0;entryX=0.25;entryY=1;entryDx=0;entryDy=0;" edge="1" parent="1" target="JjNENzVG-CVF1-0G1tMt-28">
          <mxGeometry width="50" height="50" relative="1" as="geometry">
            <mxPoint x="60" y="1180" as="sourcePoint" />
            <mxPoint x="110" y="1130" as="targetPoint" />
          </mxGeometry>
        </mxCell>
        <mxCell id="JjNENzVG-CVF1-0G1tMt-44" value="Sends request to veterinarian" style="text;html=1;align=center;verticalAlign=middle;whiteSpace=wrap;rounded=0;" vertex="1" parent="1">
          <mxGeometry x="-140" y="1149" width="200" height="30" as="geometry" />
        </mxCell>
        <mxCell id="JjNENzVG-CVF1-0G1tMt-49" value="" style="endArrow=classic;html=1;rounded=0;" edge="1" parent="1">
          <mxGeometry width="50" height="50" relative="1" as="geometry">
            <mxPoint x="-140" y="1490" as="sourcePoint" />
            <mxPoint x="-350" y="1490" as="targetPoint" />
          </mxGeometry>
        </mxCell>
        <mxCell id="JjNENzVG-CVF1-0G1tMt-51" value="" style="rounded=0;whiteSpace=wrap;html=1;" vertex="1" parent="1">
          <mxGeometry x="-140" y="1215" width="10" height="245" as="geometry" />
        </mxCell>
        <mxCell id="JjNENzVG-CVF1-0G1tMt-52" value="" style="endArrow=classic;html=1;rounded=0;" edge="1" parent="1">
          <mxGeometry relative="1" as="geometry">
            <mxPoint x="280" y="1220" as="sourcePoint" />
            <mxPoint x="-140" y="1220" as="targetPoint" />
          </mxGeometry>
        </mxCell>
        <mxCell id="JjNENzVG-CVF1-0G1tMt-53" value="Accepts Request" style="edgeLabel;resizable=0;html=1;;align=center;verticalAlign=middle;" connectable="0" vertex="1" parent="JjNENzVG-CVF1-0G1tMt-52">
          <mxGeometry relative="1" as="geometry" />
        </mxCell>
        <mxCell id="JjNENzVG-CVF1-0G1tMt-54" value="Veterinarian" style="edgeLabel;resizable=0;html=1;;align=left;verticalAlign=bottom;" connectable="0" vertex="1" parent="JjNENzVG-CVF1-0G1tMt-52">
          <mxGeometry x="-1" relative="1" as="geometry" />
        </mxCell>
        <mxCell id="JjNENzVG-CVF1-0G1tMt-55" value="processes result" style="text;html=1;align=center;verticalAlign=middle;whiteSpace=wrap;rounded=0;" vertex="1" parent="1">
          <mxGeometry x="-140" y="1430" width="210" height="30" as="geometry" />
        </mxCell>
        <mxCell id="JjNENzVG-CVF1-0G1tMt-56" value="" style="endArrow=classic;html=1;rounded=0;" edge="1" parent="1">
          <mxGeometry width="50" height="50" relative="1" as="geometry">
            <mxPoint x="-140" y="1270" as="sourcePoint" />
            <mxPoint x="60" y="1270" as="targetPoint" />
          </mxGeometry>
        </mxCell>
        <mxCell id="JjNENzVG-CVF1-0G1tMt-57" value="" style="rounded=0;whiteSpace=wrap;html=1;" vertex="1" parent="1">
          <mxGeometry x="60" y="1270" width="10" height="190" as="geometry" />
        </mxCell>
        <mxCell id="JjNENzVG-CVF1-0G1tMt-58" value="" style="endArrow=classic;html=1;rounded=0;" edge="1" parent="1">
          <mxGeometry width="50" height="50" relative="1" as="geometry">
            <mxPoint x="60" y="1360" as="sourcePoint" />
            <mxPoint x="260" y="1360" as="targetPoint" />
          </mxGeometry>
        </mxCell>
        <mxCell id="JjNENzVG-CVF1-0G1tMt-60" value="" style="endArrow=classic;html=1;rounded=0;" edge="1" parent="1">
          <mxGeometry width="50" height="50" relative="1" as="geometry">
            <mxPoint x="-140" y="1320" as="sourcePoint" />
            <mxPoint x="60" y="1320" as="targetPoint" />
          </mxGeometry>
        </mxCell>
        <mxCell id="JjNENzVG-CVF1-0G1tMt-61" value="Makes a form" style="text;html=1;align=center;verticalAlign=middle;whiteSpace=wrap;rounded=0;" vertex="1" parent="1">
          <mxGeometry x="-140" y="1290" width="200" height="30" as="geometry" />
        </mxCell>
        <mxCell id="JjNENzVG-CVF1-0G1tMt-62" value="Validates data" style="text;html=1;align=center;verticalAlign=middle;whiteSpace=wrap;rounded=0;" vertex="1" parent="1">
          <mxGeometry x="-140" y="1240" width="200" height="30" as="geometry" />
        </mxCell>
        <mxCell id="JjNENzVG-CVF1-0G1tMt-63" value="makes request to db" style="text;html=1;align=center;verticalAlign=middle;whiteSpace=wrap;rounded=0;" vertex="1" parent="1">
          <mxGeometry x="60" y="1330" width="200" height="30" as="geometry" />
        </mxCell>
        <mxCell id="JjNENzVG-CVF1-0G1tMt-64" value="" style="rounded=0;whiteSpace=wrap;html=1;" vertex="1" parent="1">
          <mxGeometry x="260" y="1360" width="10" height="50" as="geometry" />
        </mxCell>
        <mxCell id="JjNENzVG-CVF1-0G1tMt-65" value="query result" style="text;html=1;align=center;verticalAlign=middle;whiteSpace=wrap;rounded=0;" vertex="1" parent="1">
          <mxGeometry x="60" y="1380" width="200" height="30" as="geometry" />
        </mxCell>
        <mxCell id="JjNENzVG-CVF1-0G1tMt-66" value="" style="endArrow=classic;html=1;rounded=0;" edge="1" parent="1">
          <mxGeometry width="50" height="50" relative="1" as="geometry">
            <mxPoint x="260" y="1408.57" as="sourcePoint" />
            <mxPoint x="60" y="1409" as="targetPoint" />
          </mxGeometry>
        </mxCell>
        <mxCell id="JjNENzVG-CVF1-0G1tMt-67" value="" style="endArrow=classic;html=1;rounded=0;" edge="1" parent="1">
          <mxGeometry width="50" height="50" relative="1" as="geometry">
            <mxPoint x="60" y="1460" as="sourcePoint" />
            <mxPoint x="-140" y="1460" as="targetPoint" />
          </mxGeometry>
        </mxCell>
        <mxCell id="JjNENzVG-CVF1-0G1tMt-68" value="display result" style="text;html=1;align=center;verticalAlign=middle;whiteSpace=wrap;rounded=0;" vertex="1" parent="1">
          <mxGeometry x="-350" y="1460" width="210" height="30" as="geometry" />
        </mxCell>
        <mxCell id="JjNENzVG-CVF1-0G1tMt-86" value="" style="rounded=0;whiteSpace=wrap;html=1;" vertex="1" parent="1">
          <mxGeometry x="1000" y="926.59" width="10" height="453.41" as="geometry" />
        </mxCell>
        <mxCell id="JjNENzVG-CVF1-0G1tMt-90" value="processes result" style="text;html=1;align=center;verticalAlign=middle;whiteSpace=wrap;rounded=0;" vertex="1" parent="1">
          <mxGeometry x="1000" y="1141.59" width="210" height="30" as="geometry" />
        </mxCell>
        <mxCell id="JjNENzVG-CVF1-0G1tMt-91" value="" style="endArrow=classic;html=1;rounded=0;" edge="1" parent="1">
          <mxGeometry width="50" height="50" relative="1" as="geometry">
            <mxPoint x="1000" y="981.59" as="sourcePoint" />
            <mxPoint x="1200" y="981.59" as="targetPoint" />
          </mxGeometry>
        </mxCell>
        <mxCell id="JjNENzVG-CVF1-0G1tMt-92" value="" style="rounded=0;whiteSpace=wrap;html=1;" vertex="1" parent="1">
          <mxGeometry x="1200" y="981.59" width="10" height="190" as="geometry" />
        </mxCell>
        <mxCell id="JjNENzVG-CVF1-0G1tMt-93" value="" style="endArrow=classic;html=1;rounded=0;" edge="1" parent="1">
          <mxGeometry width="50" height="50" relative="1" as="geometry">
            <mxPoint x="1200" y="1071.59" as="sourcePoint" />
            <mxPoint x="1400" y="1071.59" as="targetPoint" />
          </mxGeometry>
        </mxCell>
        <mxCell id="JjNENzVG-CVF1-0G1tMt-94" value="" style="endArrow=classic;html=1;rounded=0;" edge="1" parent="1">
          <mxGeometry width="50" height="50" relative="1" as="geometry">
            <mxPoint x="1000" y="1031.59" as="sourcePoint" />
            <mxPoint x="1200" y="1031.59" as="targetPoint" />
          </mxGeometry>
        </mxCell>
        <mxCell id="JjNENzVG-CVF1-0G1tMt-95" value="Makes a form" style="text;html=1;align=center;verticalAlign=middle;whiteSpace=wrap;rounded=0;" vertex="1" parent="1">
          <mxGeometry x="1000" y="1001.59" width="200" height="30" as="geometry" />
        </mxCell>
        <mxCell id="JjNENzVG-CVF1-0G1tMt-96" value="Validates data" style="text;html=1;align=center;verticalAlign=middle;whiteSpace=wrap;rounded=0;" vertex="1" parent="1">
          <mxGeometry x="1000" y="951.59" width="200" height="30" as="geometry" />
        </mxCell>
        <mxCell id="JjNENzVG-CVF1-0G1tMt-97" value="makes request to db" style="text;html=1;align=center;verticalAlign=middle;whiteSpace=wrap;rounded=0;" vertex="1" parent="1">
          <mxGeometry x="1200" y="1041.59" width="200" height="30" as="geometry" />
        </mxCell>
        <mxCell id="JjNENzVG-CVF1-0G1tMt-98" value="" style="rounded=0;whiteSpace=wrap;html=1;" vertex="1" parent="1">
          <mxGeometry x="1400" y="1071.59" width="10" height="50" as="geometry" />
        </mxCell>
        <mxCell id="JjNENzVG-CVF1-0G1tMt-99" value="query result" style="text;html=1;align=center;verticalAlign=middle;whiteSpace=wrap;rounded=0;" vertex="1" parent="1">
          <mxGeometry x="1200" y="1091.59" width="200" height="30" as="geometry" />
        </mxCell>
        <mxCell id="JjNENzVG-CVF1-0G1tMt-100" value="" style="endArrow=classic;html=1;rounded=0;" edge="1" parent="1">
          <mxGeometry width="50" height="50" relative="1" as="geometry">
            <mxPoint x="1400" y="1120.1599999999999" as="sourcePoint" />
            <mxPoint x="1200" y="1120.59" as="targetPoint" />
          </mxGeometry>
        </mxCell>
        <mxCell id="JjNENzVG-CVF1-0G1tMt-101" value="" style="endArrow=classic;html=1;rounded=0;" edge="1" parent="1">
          <mxGeometry width="50" height="50" relative="1" as="geometry">
            <mxPoint x="1200" y="1171.59" as="sourcePoint" />
            <mxPoint x="1000" y="1171.59" as="targetPoint" />
          </mxGeometry>
        </mxCell>
        <mxCell id="JjNENzVG-CVF1-0G1tMt-105" value="Show success toast" style="text;html=1;align=center;verticalAlign=middle;whiteSpace=wrap;rounded=0;" vertex="1" parent="1">
          <mxGeometry x="790" y="1168.64" width="210" height="30" as="geometry" />
        </mxCell>
        <mxCell id="JjNENzVG-CVF1-0G1tMt-106" value="" style="endArrow=classic;html=1;rounded=0;" edge="1" parent="1">
          <mxGeometry width="50" height="50" relative="1" as="geometry">
            <mxPoint x="1000" y="1197.64" as="sourcePoint" />
            <mxPoint x="790" y="1197.64" as="targetPoint" />
          </mxGeometry>
        </mxCell>
        <mxCell id="JjNENzVG-CVF1-0G1tMt-107" value="processes result" style="text;html=1;align=center;verticalAlign=middle;whiteSpace=wrap;rounded=0;" vertex="1" parent="1">
          <mxGeometry x="1000" y="1349.41" width="210" height="30" as="geometry" />
        </mxCell>
        <mxCell id="JjNENzVG-CVF1-0G1tMt-108" value="" style="endArrow=classic;html=1;rounded=0;" edge="1" parent="1">
          <mxGeometry width="50" height="50" relative="1" as="geometry">
            <mxPoint x="1200" y="1279.41" as="sourcePoint" />
            <mxPoint x="1400" y="1279.41" as="targetPoint" />
          </mxGeometry>
        </mxCell>
        <mxCell id="JjNENzVG-CVF1-0G1tMt-109" value="" style="endArrow=classic;html=1;rounded=0;" edge="1" parent="1">
          <mxGeometry width="50" height="50" relative="1" as="geometry">
            <mxPoint x="1000" y="1239.41" as="sourcePoint" />
            <mxPoint x="1200" y="1239.41" as="targetPoint" />
          </mxGeometry>
        </mxCell>
        <mxCell id="JjNENzVG-CVF1-0G1tMt-110" value="Makes a form" style="text;html=1;align=center;verticalAlign=middle;whiteSpace=wrap;rounded=0;" vertex="1" parent="1">
          <mxGeometry x="1000" y="1209.41" width="200" height="30" as="geometry" />
        </mxCell>
        <mxCell id="JjNENzVG-CVF1-0G1tMt-111" value="makes request to db" style="text;html=1;align=center;verticalAlign=middle;whiteSpace=wrap;rounded=0;" vertex="1" parent="1">
          <mxGeometry x="1200" y="1249.41" width="200" height="30" as="geometry" />
        </mxCell>
        <mxCell id="JjNENzVG-CVF1-0G1tMt-112" value="" style="rounded=0;whiteSpace=wrap;html=1;" vertex="1" parent="1">
          <mxGeometry x="1400" y="1279.41" width="10" height="50" as="geometry" />
        </mxCell>
        <mxCell id="JjNENzVG-CVF1-0G1tMt-113" value="query result" style="text;html=1;align=center;verticalAlign=middle;whiteSpace=wrap;rounded=0;" vertex="1" parent="1">
          <mxGeometry x="1200" y="1299.41" width="200" height="30" as="geometry" />
        </mxCell>
        <mxCell id="JjNENzVG-CVF1-0G1tMt-114" value="" style="endArrow=classic;html=1;rounded=0;" edge="1" parent="1">
          <mxGeometry width="50" height="50" relative="1" as="geometry">
            <mxPoint x="1400" y="1327.9799999999998" as="sourcePoint" />
            <mxPoint x="1200" y="1328.41" as="targetPoint" />
          </mxGeometry>
        </mxCell>
        <mxCell id="JjNENzVG-CVF1-0G1tMt-115" value="" style="endArrow=classic;html=1;rounded=0;" edge="1" parent="1">
          <mxGeometry width="50" height="50" relative="1" as="geometry">
            <mxPoint x="1200" y="1379.41" as="sourcePoint" />
            <mxPoint x="1000" y="1379.41" as="targetPoint" />
          </mxGeometry>
        </mxCell>
        <mxCell id="JjNENzVG-CVF1-0G1tMt-116" value="display results" style="text;html=1;align=center;verticalAlign=middle;whiteSpace=wrap;rounded=0;" vertex="1" parent="1">
          <mxGeometry x="790" y="1380" width="210" height="30" as="geometry" />
        </mxCell>
        <mxCell id="JjNENzVG-CVF1-0G1tMt-117" value="" style="endArrow=classic;html=1;rounded=0;" edge="1" parent="1">
          <mxGeometry width="50" height="50" relative="1" as="geometry">
            <mxPoint x="1000" y="1409" as="sourcePoint" />
            <mxPoint x="790" y="1409" as="targetPoint" />
          </mxGeometry>
        </mxCell>
        <mxCell id="JjNENzVG-CVF1-0G1tMt-118" value="" style="rounded=0;whiteSpace=wrap;html=1;" vertex="1" parent="1">
          <mxGeometry x="1200" y="1240" width="10" height="140" as="geometry" />
        </mxCell>
      </root>
    </mxGraphModel>
  </diagram>
</mxfile>
